<svg width="597" height="256" viewBox="0 0 597 256" fill="none" xmlns="http://www.w3.org/2000/svg">
<path d="M151.937 47.5359C152.573 66.2793 152.042 84.6232 146.965 102.579C140.388 125.846 127.988 145.78 110.356 162.636C98.8546 173.633 85.2357 181.704 70.9405 188.757C61.4761 193.429 52.3701 198.685 43.7672 204.732C31.9478 213.038 22.1372 223.264 14.0738 235.028C9.76227 241.318 5.90567 247.897 1.82766 254.34C1.45327 254.931 0.962137 255.448 0.523338 256C0.350234 255.902 0.17713 255.804 0 255.706C0.998368 253.055 1.92427 250.38 3.00316 247.76C11.912 226.174 22.5921 205.429 34.6893 185.381C49.5642 160.732 66.5042 137.47 85.7711 115.922C100.115 99.881 115.211 84.4704 130.13 68.9228C136.813 61.9596 143.882 55.3528 150.778 48.5894C151.096 48.2761 151.446 47.9824 151.937 47.5359Z" fill="black"/>
<path d="M29.8504 172.814C29.7216 167.75 29.468 162.687 29.4881 157.623C29.5686 140.375 34.0452 124.225 42.6239 109.155C48.5899 98.6748 56.5246 89.6909 65.3207 81.3883C85.5376 62.316 105.734 43.2241 125.976 24.1753C134.212 16.421 142.533 8.74507 150.818 1.03782C151.132 0.744095 151.498 0.501285 152.134 0C152.134 0.838086 152.134 1.33154 152.134 1.82499C152.134 10.3703 152.167 18.9196 152.102 27.4649C152.098 28.2717 151.74 29.2782 151.176 29.846C138.306 42.7815 125.307 55.5996 112.49 68.586C95.2073 86.0879 78.2069 103.852 63.1065 123.218C54.1091 134.76 45.7196 146.716 38.3043 159.299C35.6474 163.811 32.9743 168.314 30.3053 172.822H29.8424L29.8504 172.814Z" fill="#0A0A0A"/>
</svg>
